<svg xmlns="http://www.w3.org/2000/svg" width="80" height="96" viewBox="0 0 80 96">
  <defs>
    <style>
      .cls-1 {
        fill-rule: evenodd;
      }
    </style>
  </defs>
  <path id="Medical_equipmentю.svg" class="cls-1" d="M931.506,767.935a2.024,2.024,0,0,1-1.01,0c-1.416-.369-23.5-11.674-23.5-23.4v-23.48a2,2,0,0,1,2-2c5.334,0,18.836-6.058,20.391-8.213a2.071,2.071,0,0,1,3.242,0c1.674,2.319,14.785,8.213,20.367,8.213a2,2,0,0,1,2,2v24.61C955,755.46,932.586,767.652,931.506,767.935ZM951,722.9c-5.98-.839-15.785-4.869-20.012-8.161-4.248,3.195-14.162,7.269-19.988,8.146v21.65c0,7.754,16.029,17.408,20,19.3,3.828-1.9,20-12.2,20-18.166V722.9Zm-14,29.123H925v-8h-8v-12h8v-8h12v8h8v12h-8v8Zm4-12v-4h-8v-8h-4v8h-8v4h8v8h4v-8h8Zm-50-4h10a2,2,0,0,1,0,4H891A2,2,0,0,1,891,736.017Zm32-30.008H891a2,2,0,0,1,0-4h32A2,2,0,0,1,923,706.009Zm0-16H891a2,2,0,0,1,0-4h32A2,2,0,0,1,923,690.005Zm0,8H891a2,2,0,0,1,0-4h32A2,2,0,0,1,923,698.007Zm14,12a2,2,0,0,1-2-2V676H879v76.021h26.75a2,2,0,0,1,0,4H877a2,2,0,0,1-2-2V674a2,2,0,0,1,2-2h60a2,2,0,0,1,2,2V708.01A2,2,0,0,1,937,710.01Z" transform="translate(-875 -672)"/>
</svg>