<svg xmlns="http://www.w3.org/2000/svg" width="94" height="96" viewBox="0 0 94 96">
  <defs>
    <style>
      .cls-1 {
        fill-rule: evenodd;
      }
    </style>
  </defs>
  <path id="People.svg" class="cls-1" d="M853.826,743.323V768h-4.087V721.021h4.087v18.138c2.078-.49,4.087-1.731,4.087-3.84V716.936c0-4.661-9.918-8.17-16.348-8.17-0.573,0-1.2.031-1.854,0.093l-0.379-4.067c0.79-.074,1.541-0.111,2.233-0.111,6.9,0,20.435,3.7,20.435,12.255v18.383C862,739.9,858.082,742.651,853.826,743.323Zm-12.261-40.685a9.879,9.879,0,0,1-10.217-10.212V688.34a10.218,10.218,0,0,1,20.435,0v4.086A9.88,9.88,0,0,1,841.565,702.638Zm6.131-14.3a6.131,6.131,0,0,0-12.261,0v4.086a6.131,6.131,0,0,0,12.261,0V688.34ZM815,696.511A9.88,9.88,0,0,1,804.783,686.3v-4.085a10.217,10.217,0,0,1,20.434,0V686.3A9.88,9.88,0,0,1,815,696.511Zm6.13-14.3a6.13,6.13,0,0,0-12.26,0V686.3a6.13,6.13,0,0,0,12.26,0v-4.085Zm-32.7,20.425a9.88,9.88,0,0,1-10.218-10.212V688.34a10.218,10.218,0,0,1,20.435,0v4.086A9.879,9.879,0,0,1,788.435,702.638Zm6.13-14.3a6.131,6.131,0,0,0-12.261,0v4.086a6.131,6.131,0,0,0,12.261,0V688.34Zm-3.9,16.452-0.379,4.067c-0.659-.062-1.281-0.093-1.854-0.093-6.43,0-16.348,3.509-16.348,8.17v18.383c0,2.109,2.009,3.35,4.087,3.84V721.021h4.087V768h-4.087V743.323c-4.256-.672-8.174-3.426-8.174-8V716.936c0-8.554,13.532-12.255,20.435-12.255C789.127,704.681,789.878,704.718,790.668,704.792ZM815,698.553c7.593,0,22.478,3.7,22.478,12.256v18.382a10.7,10.7,0,0,1-8.174,9.975V768h-4.087V714.894H829.3v19.984a6.684,6.684,0,0,0,4.087-5.687V710.809c0-4.662-11.157-8.171-18.391-8.171s-18.391,3.509-18.391,8.171v18.382a6.684,6.684,0,0,0,4.087,5.687V714.894h4.087V768H800.7V739.166a10.7,10.7,0,0,1-8.174-9.975V710.809C792.522,702.254,807.407,698.553,815,698.553ZM817.043,768h-4.086V735.319h4.086V768Z" transform="translate(-768 -672)"/>
</svg>