<svg xmlns="http://www.w3.org/2000/svg" width="96" height="89" viewBox="0 0 96 89">
  <defs>
    <style>
      .cls-1 {
        fill-rule: evenodd;
      }
    </style>
  </defs>
  <path id="Piggy_bank.svg" class="cls-1" d="M1055.41,724l-1.53,1.545a4.087,4.087,0,0,1-3.89,1.12,4.157,4.157,0,0,1-3-2.763l-1.35-1.768,1.11,1.683-2.8,1.889c-0.23,7.534-2.77,14-7.45,18.776l-2.53,14.841A2.012,2.012,0,0,1,1032,761h-6a2,2,0,0,1-1.78-1.094l-3.3-6.462a51,51,0,0,1-12.93,1.488,59.174,59.174,0,0,1-12.943-1.654l-3.264,6.6A2,2,0,0,1,989.994,761h-6a2.01,2.01,0,0,1-2-2.023V746.8c-4.852-2.3-16.921-10.176-19.179-14.528-2.041-3.939-3.9-11.009-2.072-14.039a3.232,3.232,0,0,1,2.808-1.629c0.1,0,.159,0,0.235,0a15.541,15.541,0,0,0,5.457-.788,21.254,21.254,0,0,1,5.49-7.06c-3.171-5.669-4.42-8.676-2.935-10.56a4.083,4.083,0,0,1,3.422-1.2,25.947,25.947,0,0,1,11.262,3.9,45.426,45.426,0,0,1,19.658-4.62c19.26,0,35.19,10.813,37.55,24.748l0.84-.572a4.106,4.106,0,0,1,3.66-.478,4.162,4.162,0,0,1,2.6,2.649l0.27,0.063,1.52-1.545a1.986,1.986,0,0,1,2.83,0A2.04,2.04,0,0,1,1055.41,724Zm-49.27-23.68a40.9,40.9,0,0,0-16.087,3.394,11.673,11.673,0,0,1,1.254,1.527l-3.293,2.295c-2.546-3.731-9.769-6.236-12.622-6.493a59.468,59.468,0,0,0,3.686,7.246,2.034,2.034,0,0,1-.61,2.682,17.1,17.1,0,0,0-5.914,7.23,2.013,2.013,0,0,1-.983,1.011,17.691,17.691,0,0,1-7.518,1.434c-0.31,1.438.34,5.954,2.3,9.744,1.983,3.821,16.091,12.534,18.036,13.069a2.172,2.172,0,0,1,1.6,1.981v11.517h2.764l3.447-6.973a2,2,0,0,1,2.377-1.03,53.307,53.307,0,0,0,13.408,1.934,45.167,45.167,0,0,0,13.38-1.77,2,2,0,0,1,2.36,1.008l3.48,6.831h3.1l2.35-13.8a2.07,2.07,0,0,1,.59-1.118c4.48-4.328,6.75-10.2,6.75-17.442C1040,711.433,1024.49,700.318,1006.14,700.318ZM1032,724.591c0-7.133-10.36-16.182-22-16.182a2.023,2.023,0,0,1,0-4.045c13.12,0,26,10.018,26,20.227A2,2,0,1,1,1032,724.591ZM979.994,716.5h4v4.045h-4V716.5Zm33.456-23.6a10.135,10.135,0,0,0-7.46-16.856,10.137,10.137,0,0,0-7.449,16.856l-2.98,2.7a14,14,0,1,1,20.869,0Z" transform="translate(-960 -672)"/>
</svg>